<?xml version="1.0" encoding="utf-8"?>
<!-- Generator: Adobe Illustrator 16.0.3, SVG Export Plug-In . SVG Version: 6.00 Build 0)  -->
<!DOCTYPE svg PUBLIC "-//W3C//DTD SVG 1.1//EN" "http://www.w3.org/Graphics/SVG/1.1/DTD/svg11.dtd">
<svg version="1.1" id="Layer_1" xmlns="http://www.w3.org/2000/svg" xmlns:xlink="http://www.w3.org/1999/xlink" x="0px" y="0px"
	 width="228.879px" height="130px" viewBox="0 0 228.879 130" enable-background="new 0 0 228.879 130" xml:space="preserve">
<path fill="#83B4E1" stroke="#1E396A" stroke-miterlimit="10" d="M21.578,65.332c3.449-2.742,118.088,1.51,124.125,0
	c6.036-1.509-15.092-21.882,0-29.805c15.091-7.923,66.4,24.523,66.4,34.332c0,9.81-56.215,46.782-66.4,35.842
	c-10.187-10.941,4.002-25.509,0-29.805c-4.004-4.297-121.122,2.101-124.125,0C18.576,73.795,18.13,68.074,21.578,65.332z"/>
<g>
	<path fill="#1C3664" d="M154.791,61.526h2.136l8.262,11.849h0.041V61.526h1.692v14.267h-2.136l-8.263-11.849h-0.04v11.849h-1.692
		V61.526z"/>
	<path fill="#1C3664" d="M178.609,74.08c-0.564,0.726-1.182,1.232-1.854,1.521s-1.451,0.434-2.338,0.434
		c-0.738,0-1.403-0.132-1.995-0.394c-0.591-0.262-1.091-0.614-1.501-1.058s-0.726-0.968-0.947-1.572s-0.332-1.249-0.332-1.934
		c0-0.726,0.121-1.394,0.362-2.006c0.242-0.61,0.578-1.135,1.008-1.571s0.94-0.776,1.531-1.018c0.591-0.242,1.236-0.363,1.935-0.363
		c0.658,0,1.263,0.111,1.813,0.333s1.024,0.544,1.421,0.967c0.396,0.424,0.702,0.94,0.917,1.552s0.322,1.307,0.322,2.086v0.504
		h-7.617c0.027,0.402,0.124,0.789,0.292,1.158c0.168,0.37,0.387,0.692,0.655,0.968s0.584,0.493,0.947,0.654
		c0.362,0.161,0.759,0.242,1.188,0.242c0.686,0,1.263-0.121,1.733-0.362c0.47-0.242,0.893-0.598,1.27-1.068L178.609,74.08z
		 M177.26,70.231c-0.027-0.807-0.289-1.451-0.786-1.935s-1.183-0.726-2.056-0.726s-1.578,0.242-2.115,0.726
		c-0.538,0.483-0.86,1.128-0.968,1.935H177.26z"/>
	<path fill="#1C3664" d="M183.828,70.715l-3.386-4.353h2.056l2.499,3.386l2.357-3.386h1.914l-3.244,4.353l3.889,5.078h-2.075
		l-2.982-4.07l-2.942,4.07h-1.954L183.828,70.715z"/>
	<path fill="#1C3664" d="M196.624,67.692h-2.78v4.715c0,0.31,0.007,0.595,0.02,0.856c0.014,0.263,0.067,0.491,0.162,0.686
		c0.094,0.195,0.234,0.35,0.423,0.464c0.188,0.114,0.456,0.171,0.806,0.171c0.229,0,0.464-0.026,0.705-0.081
		c0.242-0.053,0.471-0.134,0.686-0.241l0.061,1.431c-0.269,0.121-0.567,0.208-0.896,0.262c-0.33,0.054-0.642,0.081-0.938,0.081
		c-0.564,0-1.015-0.074-1.35-0.222c-0.336-0.148-0.599-0.356-0.786-0.625c-0.188-0.269-0.312-0.602-0.373-0.997
		c-0.061-0.396-0.091-0.837-0.091-1.32v-5.179h-2.055v-1.33h2.055v-2.68h1.572v2.68h2.78V67.692z"/>
</g>
</svg>
